<?xml version="1.0" encoding="UTF-8" standalone="no"?>
<svg
   xmlns:dc="http://purl.org/dc/elements/1.1/"
   xmlns:cc="http://creativecommons.org/ns#"
   xmlns:rdf="http://www.w3.org/1999/02/22-rdf-syntax-ns#"
   xmlns:svg="http://www.w3.org/2000/svg"
   xmlns="http://www.w3.org/2000/svg"
   xmlns:sodipodi="http://sodipodi.sourceforge.net/DTD/sodipodi-0.dtd"
   xmlns:inkscape="http://www.inkscape.org/namespaces/inkscape"
   width="150"
   height="150"
   viewBox="0 0 39.687499 39.687501"
   version="1.1"
   id="svg8"
   inkscape:version="1.0.1 (3bc2e813f5, 2020-09-07)"
   sodipodi:docname="Logo_mesdeuxseins.svg">
  <defs
     id="defs2" />
  <sodipodi:namedview
     id="base"
     pagecolor="#ffffff"
     bordercolor="#666666"
     borderopacity="1.0"
     inkscape:pageopacity="0.0"
     inkscape:pageshadow="2"
     inkscape:zoom="1.979899"
     inkscape:cx="109.48267"
     inkscape:cy="122.67274"
     inkscape:document-units="mm"
     inkscape:current-layer="layer1"
     inkscape:document-rotation="0"
     showgrid="false"
     units="px"
     inkscape:window-width="1920"
     inkscape:window-height="1057"
     inkscape:window-x="-8"
     inkscape:window-y="-8"
     inkscape:window-maximized="1" />
  <metadata
     id="metadata5">
    <rdf:RDF>
      <cc:Work
         rdf:about="">
        <dc:format>image/svg+xml</dc:format>
        <dc:type
           rdf:resource="http://purl.org/dc/dcmitype/StillImage" />
        <dc:title />
      </cc:Work>
    </rdf:RDF>
  </metadata>
  <g
     inkscape:label="Calque 1"
     inkscape:groupmode="layer"
     id="layer1">
    <g
       id="g931"
       transform="translate(-48.706173,-2.4635954)"
       style="stroke:#000000;stroke-opacity:1;stroke-width:0.3;stroke-miterlimit:4;stroke-dasharray:none">
      <path
         style="fill:#429cea;fill-opacity:1;stroke-width:0.3;stroke:#000000;stroke-opacity:1;stroke-miterlimit:4;stroke-dasharray:none"
         d="m 68.999554,37.977655 c -4.01729,-1.260922 -7.570296,-4.744717 -8.196777,-8.759306 -0.162551,-1.181894 -0.225491,-1.259765 -1.278761,-1.582123 -2.875986,-0.880209 -5.321185,-3.360426 -6.265952,-6.355688 -0.463221,-1.468581 -0.530385,-2.412702 -0.530385,-7.455581 0,-4.7098301 0.07121,-5.8452739 0.386352,-6.1604167 0.451284,-0.4512839 4.89515,-1.3277676 5.51872,-1.0884818 0.469216,0.1800553 0.655524,0.6200164 0.804546,1.8999149 0.11715,1.0061652 -0.162371,1.2890061 -1.719814,1.7402396 l -1.153346,0.334157 -0.04817,4.603706 c -0.05519,5.273941 0.07747,5.81549 1.853457,7.566391 2.961763,2.919926 7.951965,1.958316 9.73059,-1.87508 0.419302,-0.903704 0.491896,-1.744502 0.496858,-5.754688 0.0056,-4.546614 -0.01133,-4.696354 -0.531854,-4.696354 -0.295716,0 -0.950559,-0.172518 -1.455208,-0.383374 -0.832914,-0.3480138 -0.917544,-0.4822348 -0.917544,-1.4552082 0,-1.085908 0.687587,-2.1372259 1.389063,-2.1238713 1.250034,0.023799 4.839192,1.0552028 5.158661,1.4824276 0.300211,0.4014724 0.347617,1.5765325 0.249491,6.1841929 -0.0069,2.541467 -0.01162,5.264564 -0.672994,7.590304 -0.716825,2.399649 -4.269895,5.977588 -6.742343,6.168029 -0.663488,0 -0.719858,0.381373 -0.278706,1.885577 0.790874,2.69666 3.751097,4.729006 6.88805,4.729006 2.596556,0 5.59348,-1.959144 6.563961,-4.29098 0.588336,-1.413629 0.93412,-9.602168 0.348137,-9.827035 -0.665178,-0.255254 -1.788774,-1.832187 -1.789819,-2.907623 -0.0021,-2.256047 1.560066,-3.877311 3.734406,-3.875456 2.114942,0.0018 3.751726,1.517201 3.830561,3.546482 0.04744,1.221094 -1.09311,2.776157 -1.853665,3.183194 -0.456377,0.244246 -0.108004,0.831289 -0.20551,5.368002 -0.103897,4.833852 -0.41031,5.761907 -1.139187,7.178118 -1.813799,3.421322 -7.187578,6.063139 -12.172803,5.131525 z"
         id="path923"
         sodipodi:nodetypes="ccssssssscssscssssscccsssscssssccc" />
      <ellipse
         style="fill:#7bcb65;fill-opacity:1;stroke:#000000;stroke-width:0.3;stroke-linejoin:round;stroke-miterlimit:4;stroke-dasharray:none;stroke-opacity:1"
         id="path925"
         cx="80.556168"
         cy="17.23035"
         rx="1.9920157"
         ry="1.912335" />
    </g>
  </g>
</svg>
