<?xml version="1.0" encoding="UTF-8" standalone="no"?>
<svg
   xmlns:dc="http://purl.org/dc/elements/1.1/"
   xmlns:cc="http://creativecommons.org/ns#"
   xmlns:rdf="http://www.w3.org/1999/02/22-rdf-syntax-ns#"
   xmlns:svg="http://www.w3.org/2000/svg"
   xmlns="http://www.w3.org/2000/svg"
   xmlns:sodipodi="http://sodipodi.sourceforge.net/DTD/sodipodi-0.dtd"
   xmlns:inkscape="http://www.inkscape.org/namespaces/inkscape"
   width="150"
   height="150"
   viewBox="0 0 39.687499 39.687501"
   version="1.1"
   id="svg8"
   inkscape:version="1.0.1 (3bc2e813f5, 2020-09-07)"
   sodipodi:docname="Logo_kiné.svg">
  <defs
     id="defs2" />
  <sodipodi:namedview
     id="base"
     pagecolor="#ffffff"
     bordercolor="#666666"
     borderopacity="1.0"
     inkscape:pageopacity="0.0"
     inkscape:pageshadow="2"
     inkscape:zoom="1.979899"
     inkscape:cx="208.49757"
     inkscape:cy="91.030207"
     inkscape:document-units="mm"
     inkscape:current-layer="layer1"
     inkscape:document-rotation="0"
     showgrid="false"
     units="px"
     inkscape:window-width="1920"
     inkscape:window-height="1057"
     inkscape:window-x="-8"
     inkscape:window-y="-8"
     inkscape:window-maximized="1" />
  <metadata
     id="metadata5">
    <rdf:RDF>
      <cc:Work
         rdf:about="">
        <dc:format>image/svg+xml</dc:format>
        <dc:type
           rdf:resource="http://purl.org/dc/dcmitype/StillImage" />
        <dc:title />
      </cc:Work>
    </rdf:RDF>
  </metadata>
  <g
     inkscape:label="Calque 1"
     inkscape:groupmode="layer"
     id="layer1">
    <path
       style="fill:#009ded;fill-opacity:1;stroke-width:0.3;stroke:#000000;stroke-opacity:1;stroke-miterlimit:4;stroke-dasharray:none"
       d="m 22.28528,37.434136 c -0.908634,-0.364942 -0.938472,-0.78523 -0.209843,-2.955779 0.367735,-1.095463 0.747863,-2.844501 0.84473,-3.886751 0.09687,-1.042249 0.284505,-1.961983 0.416973,-2.043853 0.132468,-0.08187 0.546551,-0.07213 0.920183,0.02164 0.626635,0.157274 0.668086,0.256693 0.534364,1.281679 -0.07973,0.611148 -0.292401,1.770456 -0.472597,2.57624 -0.499632,2.234197 -0.25522,2.797138 1.365322,3.144681 0.739047,0.158499 1.572703,0.410726 1.852571,0.560507 0.614987,0.329131 0.670132,1.193538 0.09033,1.416026 -0.638664,0.245078 -4.661502,0.15893 -5.342037,-0.114398 z m 1.594836,-9.932762 c -0.692033,-0.347848 -2.256503,-1.527154 -3.476601,-2.620679 -1.220097,-1.093526 -2.24957,-1.988228 -2.287718,-1.988228 -0.03815,0 -0.629879,0.899317 -1.314959,1.998483 l -1.2456,1.998482 -5.8149905,-0.08025 c -5.399694,-0.07452 -5.841783,-0.116933 -6.19012,-0.593844 -0.20632,-0.282475 -0.375127,-0.726215 -0.375127,-0.986088 0,-0.954587 1.104418,-1.289881 5.277843,-1.602321 l 4.0119035,-0.30035 2.725838,-4.384243 c 3.04996,-4.905563 3.702009,-6.085052 3.484306,-6.302755 -0.08225,-0.08225 -1.809017,0.226472 -3.837262,0.686046 -5.4111955,1.226107 -6.7016915,1.102814 -6.7016915,-0.640277 0,-1.233851 -0.05191,-1.214844 8.6651035,-3.1724921 6.305267,-1.4160227 8.289617,-1.5474275 9.307126,-0.6163233 0.631645,0.5780067 3.260582,5.6619204 3.260582,6.3054064 0,0.360624 0.72743,0.492203 3.507672,0.634475 2.740784,0.140252 3.636078,0.574517 3.636078,1.763689 0,1.251059 -0.982884,1.588195 -4.630208,1.588195 -3.852233,0 -4.341892,-0.218622 -5.334862,-2.381911 -0.400607,-0.872761 -0.852767,-1.586839 -1.0048,-1.586839 -0.243806,0 -1.298029,1.535101 -2.847203,4.14594 l -0.497622,0.838648 2.394848,2.36764 c 2.563874,2.534746 2.784576,3.032897 2.008569,4.533533 -0.534133,1.032899 -1.247554,1.136737 -2.721105,0.396063 z M 25.97939,7.8199241 C 24.767988,7.0599273 24.1969,5.6335866 24.585155,4.3377061 25.484583,1.3356814 29.478549,1.1783286 30.687621,4.0972835 31.801474,6.7863664 28.496794,9.3992668 25.97939,7.8199241 Z"
       id="path889" />
  </g>
</svg>
