<?xml version="1.0" encoding="UTF-8" standalone="no"?>
<svg
   xmlns:dc="http://purl.org/dc/elements/1.1/"
   xmlns:cc="http://creativecommons.org/ns#"
   xmlns:rdf="http://www.w3.org/1999/02/22-rdf-syntax-ns#"
   xmlns:svg="http://www.w3.org/2000/svg"
   xmlns="http://www.w3.org/2000/svg"
   xmlns:sodipodi="http://sodipodi.sourceforge.net/DTD/sodipodi-0.dtd"
   xmlns:inkscape="http://www.inkscape.org/namespaces/inkscape"
   width="150"
   height="150"
   viewBox="0 0 39.687499 39.687501"
   version="1.1"
   id="svg8"
   inkscape:version="1.0.1 (3bc2e813f5, 2020-09-07)"
   sodipodi:docname="Logo_dentiste.svg">
  <defs
     id="defs2" />
  <sodipodi:namedview
     id="base"
     pagecolor="#ffffff"
     bordercolor="#666666"
     borderopacity="1.0"
     inkscape:pageopacity="0.0"
     inkscape:pageshadow="2"
     inkscape:zoom="1.4"
     inkscape:cx="166.74335"
     inkscape:cy="63.328156"
     inkscape:document-units="mm"
     inkscape:current-layer="layer1"
     inkscape:document-rotation="0"
     showgrid="false"
     units="px"
     inkscape:window-width="1920"
     inkscape:window-height="1057"
     inkscape:window-x="-8"
     inkscape:window-y="-8"
     inkscape:window-maximized="1" />
  <metadata
     id="metadata5">
    <rdf:RDF>
      <cc:Work
         rdf:about="">
        <dc:format>image/svg+xml</dc:format>
        <dc:type
           rdf:resource="http://purl.org/dc/dcmitype/StillImage" />
        <dc:title />
      </cc:Work>
    </rdf:RDF>
  </metadata>
  <g
     inkscape:label="Calque 1"
     inkscape:groupmode="layer"
     id="layer1">
    <path
       style="fill:#429cea;fill-opacity:1;stroke:#000000;stroke-width:0.3;stroke-miterlimit:4;stroke-dasharray:none;stroke-opacity:1"
       d="M 12.34663,36.279224 C 12.018026,36.148536 11.635424,35.77024 11.496404,35.438566 11.015742,34.291801 10.177569,29.731498 9.6405937,25.341537 9.0572977,20.572872 8.6516377,19.200899 7.0237337,16.491112 5.7067707,14.298914 5.2813647,12.660638 5.4959577,10.607523 5.8260197,7.4496573 8.2582417,4.4271041 11.14446,3.588058 c 2.395003,-0.696246 3.057378,-0.4671557 8.216994,2.8419459 1.783298,1.1437123 3.456126,2.0794769 3.717396,2.0794769 0.680779,0 1.110034,-0.5236967 1.110034,-1.3542542 0,-0.5411282 -0.237174,-0.8658357 -0.957687,-1.3111372 L 22.27351,5.2522059 22.900468,4.7672136 c 1.215143,-0.9399916 3.436779,-1.60473 4.720049,-1.4122916 3.789939,0.5683364 6.622534,4.0644945 6.622534,8.173927 0,1.999759 -0.424796,3.311656 -1.690198,5.219826 -1.362803,2.055042 -1.932689,3.988985 -2.386087,8.097312 -0.564859,5.118281 -1.647915,10.39751 -2.259734,11.014796 -0.611069,0.616527 -1.724621,0.639966 -2.376501,0.05002 -0.330557,-0.299149 -0.909674,-2.118305 -1.758268,-5.523177 -1.058071,-4.245368 -1.384324,-5.196303 -1.991519,-5.80471 -1.20007,-1.202466 -3.407084,-0.910598 -4.279283,0.565917 -0.233683,0.395595 -0.97488,2.915526 -1.647103,5.599851 -0.672223,2.684322 -1.363909,5.016635 -1.537078,5.18292 -0.483773,0.464535 -1.310147,0.610307 -1.97065,0.347618 z"
       id="path24" />
  </g>
</svg>
