<?xml version="1.0" encoding="UTF-8" standalone="no"?>
<svg
   xmlns:dc="http://purl.org/dc/elements/1.1/"
   xmlns:cc="http://creativecommons.org/ns#"
   xmlns:rdf="http://www.w3.org/1999/02/22-rdf-syntax-ns#"
   xmlns:svg="http://www.w3.org/2000/svg"
   xmlns="http://www.w3.org/2000/svg"
   xmlns:sodipodi="http://sodipodi.sourceforge.net/DTD/sodipodi-0.dtd"
   xmlns:inkscape="http://www.inkscape.org/namespaces/inkscape"
   width="150"
   height="150"
   viewBox="0 0 39.687499 39.687501"
   version="1.1"
   id="svg8"
   inkscape:version="1.0.1 (3bc2e813f5, 2020-09-07)"
   sodipodi:docname="Logo_pedicure.svg">
  <defs
     id="defs2" />
  <sodipodi:namedview
     id="base"
     pagecolor="#ffffff"
     bordercolor="#666666"
     borderopacity="1.0"
     inkscape:pageopacity="0.0"
     inkscape:pageshadow="2"
     inkscape:zoom="1.4"
     inkscape:cx="174.12188"
     inkscape:cy="82.55502"
     inkscape:document-units="mm"
     inkscape:current-layer="layer1"
     inkscape:document-rotation="0"
     showgrid="false"
     units="px"
     inkscape:window-width="1920"
     inkscape:window-height="1057"
     inkscape:window-x="-8"
     inkscape:window-y="-8"
     inkscape:window-maximized="1" />
  <metadata
     id="metadata5">
    <rdf:RDF>
      <cc:Work
         rdf:about="">
        <dc:format>image/svg+xml</dc:format>
        <dc:type
           rdf:resource="http://purl.org/dc/dcmitype/StillImage" />
        <dc:title />
      </cc:Work>
    </rdf:RDF>
  </metadata>
  <g
     inkscape:label="Calque 1"
     inkscape:groupmode="layer"
     id="layer1">
    <path
       style="fill:#429cea;fill-opacity:1;stroke-width:0.3;stroke:#000000;stroke-opacity:1;stroke-miterlimit:4;stroke-dasharray:none"
       d="M 12.931968,32.769407 C 11.928928,32.239357 10.488503,30.640699 8.998996,28.404399 8.514369,27.676795 7.49042,26.294733 6.723553,25.333152 4.587878,22.655211 4.235059,21.96357 4.233941,20.452702 c -0.0013,-1.820852 0.995418,-3.735336 2.806624,-5.390676 1.624877,-1.485045 2.805681,-1.866344 4.108509,-1.326695 1.183739,0.490321 1.550545,1.599973 1.550545,4.690672 0,3.995839 0.4126,5.055002 2.907957,7.464854 2.208725,2.133042 2.828217,3.32359 2.537037,4.875713 -0.178915,0.953701 -0.631881,1.448461 -1.926126,2.103839 -1.099979,0.557009 -2.099463,0.526291 -3.286519,-0.101002 z m 10.434677,0.01561 c -1.388905,-0.630584 -2.0575,-1.79672 -1.804217,-3.146835 0.281101,-1.498399 0.785094,-2.249297 2.516356,-3.749114 2.412702,-2.090161 2.713557,-2.841872 2.894397,-7.231858 0.187688,-2.046752 -0.501976,-3.078494 1.012605,-4.431771 1.468567,-1.312165 3.111423,-0.894596 5.167974,1.313559 2.399144,2.576006 2.972906,5.26541 1.572422,7.370435 -1.583677,2.380375 -4.797756,6.391193 -6.681746,8.338087 -2.217395,2.291435 -2.681331,2.44392 -4.677791,1.537497 z M 1.640036,18.958774 c -0.390698,-0.390697 -0.416624,-1.442092 -0.04128,-1.674066 0.481137,-0.297359 1.575865,0.630882 1.575865,1.336207 0,0.507464 -0.13733,0.655359 -0.608542,0.655359 -0.334698,0 -0.751416,-0.142875 -0.926041,-0.3175 z m 35.002912,0.05055 c -0.424143,-0.686279 0.801086,-2.122598 1.46214,-1.714045 0.361209,0.22324 0.324083,1.281027 -0.05839,1.663496 -0.386794,0.386793 -1.178329,0.415296 -1.403754,0.05055 z M 2.413381,16.532756 C 1.648106,15.718158 1.762057,14.93712 2.66152,14.831979 c 0.840506,-0.09825 1.646039,0.734543 1.526548,1.578205 -0.121928,0.860864 -1.022654,0.923074 -1.774687,0.122572 z m 33.371134,0.451622 c -0.938162,-0.378557 0.135022,-2.280117 1.216207,-2.154981 0.993757,0.115017 1.073407,1.045399 0.151575,1.770512 -0.739907,0.582012 -0.821431,0.604927 -1.367782,0.384469 z M 3.948016,14.269543 C 3.522648,13.844174 3.174619,13.316898 3.174619,13.097817 c 0,-0.624967 0.729106,-1.197241 1.326356,-1.041057 1.082008,0.282952 1.711393,1.959265 1.001977,2.66868 -0.467606,0.467607 -0.699389,0.399649 -1.554936,-0.455897 z m 30.374459,0.473232 c -0.61041,-0.341602 -0.575593,-1.064175 0.09218,-1.913112 1.097891,-1.395744 2.688542,-0.448022 1.72253,1.026298 -0.571865,0.872777 -1.248736,1.20355 -1.81471,0.886814 z M 6.064683,12.152876 C 4.886179,10.974372 5.12563,9.4866903 6.49382,9.4866903 c 1.182634,0 2.012221,1.7450707 1.326849,2.7910797 -0.547606,0.835753 -0.814308,0.816784 -1.755986,-0.124894 z m 26.002436,0.455898 c -0.446582,-0.446583 -0.394851,-1.835573 0.09438,-2.534046 0.489225,-0.6984655 1.828366,-0.8079575 2.073357,-0.1695232 0.321932,0.8389422 0.144264,1.4906092 -0.612799,2.2476712 -0.855546,0.855547 -1.087329,0.923504 -1.554935,0.455898 z M 9.312784,10.961552 C 7.859603,9.306471 7.998778,7.3945666 9.629327,6.613065 c 0.661047,-0.3168314 0.879371,-0.3086211 1.657247,0.062322 1.386987,0.6614078 1.808432,2.4111725 1.029671,4.27501 -0.332352,0.79543 -0.504768,0.917543 -1.295508,0.917543 -0.707411,0 -1.090751,-0.203433 -1.707953,-0.906388 z m 18.354378,0.397758 c -0.253167,-0.279747 -0.525122,-0.991875 -0.60434,-1.582507 -0.376264,-2.8052506 2.300144,-4.5040237 3.897233,-2.4736565 0.880501,1.1193761 0.641085,2.3484261 -0.747475,3.8371895 -0.802441,0.860352 -1.88101,0.953137 -2.545418,0.218974 z"
       id="path907"
       sodipodi:nodetypes="ssscssssssssssccssssssssssssssssssssssssssssssssssssssssssssssssssss" />
  </g>
</svg>
