<?xml version="1.0" standalone="no"?>
<!DOCTYPE svg PUBLIC "-//W3C//DTD SVG 20010904//EN"
 "http://www.w3.org/TR/2001/REC-SVG-20010904/DTD/svg10.dtd">
<svg version="1.0" xmlns="http://www.w3.org/2000/svg"
 width="3058.000000pt" height="825.000000pt" viewBox="0 0 3058.000000 825.000000"
 preserveAspectRatio="xMidYMid meet">

<g transform="translate(0.000000,825.000000) scale(0.100000,-0.100000)"
fill="#000000" stroke="none">
<path d="M2014 5748 c-676 -677 -1210 -1219 -1207 -1225 4 -10 77 -13 319 -13
l314 0 0 -1146 c0 -903 3 -1148 13 -1158 9 -9 862 -7 3947 12 2164 12 3936 25
3939 27 2 3 1 8 -2 12 -6 5 -7264 141 -7634 143 l-103 0 -2 1158 -3 1157 -182
3 c-101 1 -183 6 -183 10 0 4 452 459 1005 1012 l1005 1005 1005 -1005 c553
-553 1005 -1008 1005 -1012 0 -4 -71 -9 -157 -10 l-158 -3 -3 -80 c-2 -44 0
-90 3 -102 l5 -23 364 0 c295 0 365 3 369 13 6 17 -2411 2437 -2433 2437 -8 0
-560 -546 -1226 -1212z m2381 -18 l1150 -1150 -278 0 -277 0 0 40 0 40 205 0
c113 0 205 3 205 8 0 4 -486 493 -1080 1087 l-1080 1080 -1080 -1080 c-594
-594 -1080 -1083 -1080 -1087 0 -5 104 -8 230 -8 l230 0 0 -1155 c0 -915 3
-1157 13 -1160 6 -3 1445 -22 3197 -44 l3185 -38 -3217 -2 -3218 -1 0 1160 0
1160 -282 0 -283 0 1150 1150 c632 633 1152 1150 1155 1150 3 0 523 -517 1155
-1150z"/>
<path d="M12274 5748 c-676 -677 -1210 -1219 -1207 -1225 4 -10 77 -13 319
-13 l314 0 0 -1147 c0 -632 4 -1153 8 -1159 5 -7 1198 -3 3947 13 2166 13
3941 26 3944 28 2 3 1 8 -2 12 -6 5 -7265 141 -7634 143 l-103 0 -2 1158 -3
1157 -182 3 c-101 1 -183 6 -183 10 0 4 452 459 1005 1012 l1005 1005 1005
-1005 c553 -553 1005 -1008 1005 -1012 0 -5 -67 -8 -149 -8 -82 0 -156 -3
-165 -6 -22 -8 -23 -168 -2 -190 12 -12 76 -14 375 -14 337 0 361 1 361 18 0
21 -2409 2432 -2430 2432 -8 0 -560 -546 -1226 -1212z m2376 -13 l1155 -1155
-278 0 -277 0 0 40 0 40 205 0 c113 0 205 3 205 8 0 4 -486 493 -1080 1087
l-1080 1080 -1080 -1080 c-594 -594 -1080 -1083 -1080 -1087 0 -5 104 -8 230
-8 l230 0 0 -1155 c0 -915 3 -1157 13 -1160 6 -3 1445 -22 3197 -44 l3185 -38
-3217 -2 -3218 -1 -2 1158 -3 1157 -285 3 -285 2 1155 1155 c635 635 1155
1155 1155 1155 0 0 520 -520 1155 -1155z"/>
<path d="M21604 5748 c-676 -677 -1210 -1219 -1207 -1225 4 -10 77 -13 319
-13 l314 0 0 -1147 c0 -632 4 -1153 8 -1158 5 -8 1198 -4 3947 12 2166 13
3941 26 3944 28 2 3 1 8 -2 12 -6 5 -7277 141 -7639 143 l-98 0 -2 1158 -3
1157 -182 3 c-101 1 -183 6 -183 10 0 4 452 459 1005 1012 l1005 1005 1005
-1005 c553 -553 1005 -1008 1005 -1012 0 -5 -67 -8 -149 -8 -82 0 -156 -3
-165 -6 -22 -8 -23 -168 -2 -190 12 -12 76 -14 375 -14 337 0 361 1 361 18 0
21 -2409 2432 -2430 2432 -8 0 -560 -546 -1226 -1212z m2376 -13 l1155 -1155
-283 0 -282 0 0 40 0 40 212 0 213 0 -1085 1085 -1085 1085 -1077 -1077 c-593
-593 -1078 -1081 -1078 -1085 0 -5 104 -8 230 -8 l230 0 0 -1155 c0 -915 3
-1157 13 -1160 6 -3 1445 -22 3197 -44 l3185 -38 -3217 -2 -3218 -1 -2 1158
-3 1157 -285 3 -285 2 1155 1155 c635 635 1155 1155 1155 1155 0 0 520 -520
1155 -1155z"/>
<path d="M13298 5403 c-10 -2 -18 -8 -18 -13 0 -5 -7 -7 -15 -4 -8 4 -15 1
-15 -6 0 -6 -4 -9 -9 -6 -10 7 -73 -40 -99 -74 -54 -70 -61 -103 -68 -348 l-7
-232 -201 -1 c-111 0 -212 -2 -226 -5 -113 -19 -227 -119 -248 -216 -3 -18 -7
-121 -7 -228 0 -177 2 -199 21 -240 24 -53 102 -133 121 -125 8 2 12 1 9 -4
-5 -8 19 -23 65 -40 20 -7 305 -12 760 -12 52 0 160 37 205 69 71 52 151 145
158 184 1 7 8 24 15 37 16 29 28 141 15 141 -5 0 -22 -29 -38 -64 -45 -105
-148 -190 -271 -222 -64 -17 -778 -20 -822 -3 -35 13 -70 45 -91 84 -14 25
-17 61 -17 211 l0 180 28 43 c50 76 72 80 380 81 266 1 267 1 272 23 2 12 6
137 7 277 4 286 8 306 76 358 35 27 37 27 221 30 178 2 188 1 226 -20 72 -42
81 -67 90 -239 4 -84 3 -155 -2 -160 -5 -5 -44 -9 -88 -10 -92 -1 -137 -11
-215 -46 -87 -40 -225 -191 -204 -225 4 -6 3 -8 -4 -4 -14 8 -43 -82 -45 -141
-1 -29 3 -48 11 -50 7 -3 12 3 12 14 0 34 57 138 104 190 33 36 71 64 124 90
l76 38 170 4 c110 2 173 7 180 15 8 7 9 84 6 241 -5 214 -7 233 -27 270 -33
59 -69 99 -82 91 -6 -4 -10 -2 -9 4 2 6 -17 23 -42 38 -45 27 -46 27 -255 29
-115 1 -218 -1 -227 -4z"/>
<path d="M22612 5363 c-20 -3 -30 -8 -26 -15 4 -7 2 -8 -4 -4 -24 15 -152 -61
-152 -90 0 -8 -4 -14 -8 -14 -9 0 -41 -52 -50 -83 -3 -12 -8 -123 -9 -247 -2
-124 -7 -228 -11 -232 -4 -4 -108 -8 -232 -9 -134 -1 -230 -5 -237 -11 -7 -6
-13 -8 -13 -4 0 8 -56 -21 -92 -47 -34 -25 -85 -96 -92 -128 -24 -107 -28
-149 -24 -290 4 -149 6 -160 33 -214 33 -64 73 -103 148 -143 l52 -27 370 -3
c252 -2 389 0 430 8 86 17 166 63 231 134 77 84 97 127 118 254 9 55 -17 37
-48 -32 -31 -72 -104 -149 -174 -185 -92 -47 -147 -52 -541 -49 l-367 3 -41
27 c-58 38 -73 78 -79 210 -8 151 6 258 40 302 47 62 63 65 358 68 206 2 269
6 281 17 15 12 17 44 17 280 0 257 1 267 23 306 12 22 38 50 56 62 32 22 43
23 219 23 172 0 187 -2 224 -22 72 -41 83 -71 86 -245 l4 -153 -66 0 c-36 0
-66 -4 -66 -9 0 -4 -11 -6 -24 -4 -40 8 -162 -35 -216 -76 -90 -67 -168 -191
-186 -291 -2 -14 -7 -39 -10 -56 -4 -22 -2 -33 9 -37 10 -4 18 7 27 36 46 155
178 270 340 296 36 6 117 11 180 11 63 0 121 4 128 9 10 6 12 52 9 217 -2 115
-6 219 -10 232 -14 51 -19 62 -28 62 -6 0 -8 4 -4 9 14 24 -140 151 -164 136
-5 -3 -11 0 -13 7 -3 9 -51 13 -184 14 -98 1 -194 0 -212 -3z"/>
<path d="M3085 5303 c-11 -2 -26 -6 -33 -8 -7 -3 -14 -4 -17 -5 -16 0 -66 -34
-106 -72 -44 -41 -89 -108 -72 -108 5 0 1 -5 -7 -10 -12 -8 -16 -48 -18 -242
-2 -128 -7 -236 -10 -240 -4 -4 -108 -8 -232 -9 -216 -1 -227 -2 -277 -26 -57
-27 -147 -118 -139 -140 3 -8 2 -12 -3 -9 -20 13 -31 -80 -31 -257 0 -162 3
-193 20 -240 25 -66 85 -128 159 -165 l56 -27 380 0 c209 0 399 3 423 7 54 9
134 49 188 93 40 33 113 129 118 156 2 8 8 28 15 44 21 50 26 125 10 125 -8 0
-22 -21 -31 -47 -25 -71 -74 -131 -142 -175 -111 -71 -123 -73 -556 -73 -430
0 -421 -1 -477 72 -28 36 -28 37 -31 215 -4 166 -3 181 18 223 15 31 35 53 63
69 41 23 50 24 307 29 146 2 273 8 282 11 15 7 17 36 20 284 3 269 4 278 26
314 13 20 40 47 60 60 35 22 47 23 217 23 193 0 213 -4 262 -57 36 -39 43 -73
43 -224 l0 -144 -68 0 c-38 0 -71 -3 -75 -6 -3 -4 -24 -8 -47 -9 -122 -9 -272
-132 -329 -270 -35 -83 -53 -185 -32 -185 6 0 14 8 17 18 42 124 113 214 211
264 91 48 104 50 288 57 l160 6 3 223 c2 205 1 227 -18 268 -23 54 -78 126
-90 119 -4 -3 -11 2 -14 11 -8 20 -93 57 -117 51 -10 -3 -19 -1 -19 4 0 9
-316 11 -355 2z"/>
<path d="M13649 4647 c-76 -26 -166 -91 -215 -155 -55 -72 -99 -214 -70 -225
9 -4 19 8 31 38 21 55 93 137 152 171 103 61 129 64 545 64 375 0 381 0 420
-22 22 -13 51 -41 64 -64 23 -39 24 -49 24 -213 0 -123 -4 -181 -14 -204 -16
-39 -61 -82 -99 -96 -17 -7 -129 -11 -288 -11 -212 0 -263 -3 -275 -14 -11
-12 -14 -62 -14 -271 0 -282 -1 -287 -64 -342 -54 -49 -125 -68 -241 -67 -125
0 -197 25 -262 90 l-43 43 0 151 0 150 100 0 c58 0 100 4 100 10 0 5 6 7 14 4
8 -3 25 0 38 7 13 7 29 14 36 15 42 7 154 108 200 179 46 73 90 235 64 235 -6
0 -27 -33 -46 -74 -45 -93 -137 -183 -223 -217 -50 -20 -80 -23 -213 -26 -88
-2 -165 -9 -177 -15 -23 -11 -23 -13 -23 -228 l0 -217 31 -61 c30 -61 113
-147 130 -136 5 3 9 0 9 -7 0 -7 3 -9 7 -6 3 4 11 3 17 -2 20 -17 68 -23 212
-28 110 -4 154 -2 204 11 35 9 67 20 70 24 3 4 12 8 20 10 23 6 110 75 110 88
0 7 5 14 10 16 6 2 12 13 13 25 0 12 4 20 9 17 18 -11 28 88 28 291 l0 220
233 0 c217 0 235 1 279 22 62 29 148 115 158 158 1 6 6 20 11 32 7 20 6 410
-1 441 -2 6 -7 12 -12 12 -4 0 -7 3 -7 8 6 34 -51 107 -116 149 -61 40 -98 43
-491 43 -367 -1 -381 -1 -445 -23z"/>
<path d="M23280 4624 c-14 -2 -104 -5 -200 -6 -165 -3 -178 -5 -231 -29 -66
-31 -188 -146 -217 -204 -20 -42 -40 -117 -39 -147 1 -33 24 -18 41 25 42 111
177 206 325 228 47 7 196 10 410 7 336 -3 336 -3 379 -28 24 -13 53 -40 65
-60 21 -33 22 -47 22 -220 0 -176 -1 -187 -23 -222 -13 -20 -40 -47 -60 -60
-36 -22 -46 -23 -297 -26 -143 -1 -270 -5 -282 -7 -21 -5 -21 -8 -25 -272 -3
-246 -5 -271 -23 -301 -44 -73 -146 -115 -280 -116 -132 0 -239 45 -293 124
-21 32 -22 42 -20 169 l3 136 105 7 c103 6 220 37 220 59 0 5 7 9 15 9 24 0
129 106 120 121 -5 7 -4 10 2 6 21 -13 82 122 99 216 11 62 -17 44 -55 -35
-58 -124 -171 -214 -300 -238 -29 -5 -114 -10 -187 -10 l-133 0 -12 -39 c-18
-62 -7 -404 15 -458 10 -24 22 -43 27 -43 5 0 9 -6 9 -13 0 -22 73 -85 125
-107 102 -44 360 -51 466 -13 122 44 208 136 217 231 2 26 7 136 11 244 l6
198 220 3 c157 2 229 7 250 17 17 7 32 14 35 15 47 11 117 79 151 145 22 41
24 60 27 229 4 189 -2 237 -39 312 -24 49 -139 149 -139 122 0 -4 -4 -1 -9 7
-7 10 -41 16 -128 21 -118 8 -326 9 -373 3z"/>
<path d="M3465 4590 c-93 -6 -155 -24 -155 -43 0 -5 -4 -6 -9 -3 -11 7 -86
-46 -134 -96 -46 -47 -93 -145 -101 -210 -9 -63 12 -64 38 -2 24 59 102 143
164 177 98 53 150 59 552 55 l367 -3 41 -27 c68 -45 76 -70 80 -252 5 -174 -2
-216 -44 -266 -49 -58 -60 -60 -326 -60 -134 0 -259 -5 -279 -10 l-37 -10 -3
-268 c-4 -292 -5 -297 -68 -347 -66 -52 -197 -79 -311 -63 -80 12 -175 61
-211 110 -29 41 -29 42 -29 180 l0 138 69 0 c119 0 235 33 301 86 41 33 110
108 110 122 0 6 4 12 8 12 18 0 81 167 82 218 0 33 -28 5 -58 -57 -41 -84
-127 -171 -207 -207 -68 -31 -152 -43 -303 -44 l-112 0 -11 -27 c-11 -28 -7
-385 4 -429 22 -86 83 -161 161 -198 63 -30 254 -55 266 -36 6 9 9 9 12 -1 4
-11 20 -11 93 -1 176 23 295 112 320 237 3 17 9 128 12 248 l6 217 211 1 c196
1 223 2 236 8 3 1 16 5 30 7 14 3 27 9 28 14 2 6 12 10 23 10 10 0 19 5 19 10
0 6 6 10 14 10 18 0 87 80 80 91 -3 5 0 9 5 9 6 0 11 8 11 18 0 10 6 24 13 30
14 15 24 371 11 400 -4 9 -6 23 -5 31 1 7 -2 10 -8 6 -6 -3 -9 0 -5 9 20 52
-132 200 -212 206 -72 6 -658 6 -739 0z"/>
<path d="M4936 4224 c-3 -9 -6 -107 -6 -219 0 -112 3 -210 6 -219 3 -9 16 -16
29 -16 13 0 26 7 29 16 3 9 6 81 6 160 0 79 3 144 8 144 4 0 22 -36 41 -81 19
-44 42 -89 51 -99 19 -22 40 -26 40 -9 0 5 4 8 8 5 5 -3 26 36 47 85 21 49 42
92 47 95 4 3 8 -60 8 -140 0 -79 3 -151 6 -160 7 -19 45 -21 62 -4 19 19 17
425 -2 444 -17 16 -76 19 -76 3 0 -5 -4 -8 -8 -5 -5 3 -28 -42 -53 -99 -24
-58 -47 -105 -50 -105 -4 0 -24 39 -45 87 -22 48 -49 98 -60 110 -25 27 -79
31 -88 7z m129 -132 c33 -75 55 -111 64 -110 8 2 37 54 64 116 49 111 50 112
84 112 l33 0 -2 -207 c-3 -189 -5 -208 -20 -211 -17 -3 -18 11 -18 182 0 150
-3 186 -14 186 -7 0 -36 -52 -66 -120 -29 -66 -58 -120 -65 -120 -7 0 -36 54
-65 120 -30 68 -59 120 -66 120 -11 0 -14 -36 -14 -185 0 -158 -2 -185 -15
-185 -13 0 -15 30 -15 211 l0 210 32 -3 c31 -3 35 -8 83 -116z"/>
<path d="M15193 4225 c-18 -20 -18 -426 -1 -443 17 -17 55 -15 62 4 3 9 6 81
6 162 0 87 4 142 9 137 5 -6 26 -49 47 -97 57 -133 80 -129 144 22 l35 83 3
-148 c3 -153 8 -175 44 -175 45 0 48 16 48 235 0 226 -2 235 -58 235 -39 0
-55 -20 -101 -126 -21 -49 -42 -89 -46 -89 -5 0 -27 41 -49 91 -23 50 -49 99
-58 108 -20 20 -68 20 -85 1z m130 -133 c34 -75 55 -112 65 -110 7 2 35 53 62
113 45 104 49 110 79 113 l31 3 0 -210 c0 -181 -2 -211 -15 -211 -13 0 -15 27
-15 186 0 229 -7 234 -83 61 -35 -78 -57 -117 -66 -115 -8 2 -37 56 -65 121
-28 64 -56 117 -63 117 -10 0 -13 -43 -13 -185 0 -158 -2 -185 -15 -185 -13 0
-15 30 -15 211 l0 210 31 -3 c30 -3 34 -10 82 -116z"/>
<path d="M24523 4225 c-18 -20 -18 -426 -1 -443 17 -17 55 -15 62 4 3 9 6 81
6 162 0 86 4 142 9 137 5 -6 26 -49 46 -97 38 -90 62 -113 89 -85 8 7 31 54
53 102 l38 89 3 -149 c1 -89 7 -154 14 -162 15 -18 55 -16 62 3 8 20 8 418 0
438 -7 19 -62 21 -84 3 -9 -7 -35 -57 -59 -112 -24 -55 -45 -101 -46 -103 -1
-1 -22 42 -45 95 -24 54 -52 106 -62 116 -21 20 -68 22 -85 2z m129 -133 c34
-74 56 -112 65 -110 8 2 36 53 62 113 45 105 48 110 79 113 l32 3 0 -210 c0
-181 -2 -211 -15 -211 -13 0 -15 27 -15 186 0 230 -8 236 -84 61 -34 -79 -56
-116 -65 -114 -8 1 -38 55 -65 119 -28 65 -57 118 -63 118 -10 0 -13 -44 -13
-185 0 -158 -2 -185 -15 -185 -13 0 -15 30 -15 211 l0 210 31 -3 c28 -3 34
-11 81 -116z"/>
<path d="M5643 4204 c-23 -10 -15 -43 13 -50 30 -8 47 6 42 32 -3 19 -32 28
-55 18z"/>
<path d="M25227 4203 c-11 -10 -8 -41 4 -48 19 -12 59 4 59 24 0 25 -45 42
-63 24z"/>
<path d="M5418 4116 c-21 -15 -24 -45 -5 -47 6 -1 36 -1 65 1 42 1 52 -1 52
-14 0 -11 -9 -16 -30 -16 -16 0 -30 -4 -30 -10 0 -5 -6 -7 -13 -4 -19 7 -66
-37 -70 -66 -3 -14 0 -34 6 -45 6 -11 11 -24 12 -29 0 -13 65 -33 92 -28 12 2
21 7 19 11 -3 4 4 7 15 7 10 0 19 -4 19 -8 0 -4 9 -8 20 -8 26 0 33 30 29 136
-3 59 -8 89 -17 92 -6 2 -10 8 -7 12 16 26 -126 40 -157 16z m122 -154 c0 -35
-16 -52 -50 -52 -28 0 -50 16 -50 36 0 23 31 44 66 44 31 0 34 -3 34 -28z"/>
<path d="M5646 4114 c-10 -25 -7 -228 4 -244 7 -12 13 -12 27 -4 15 9 18 29
21 123 2 88 -1 115 -12 126 -19 19 -32 19 -40 -1z"/>
<path d="M5780 4119 c0 -7 -3 -10 -6 -6 -9 9 -47 -30 -40 -41 3 -6 1 -12 -6
-14 -7 -3 -8 -9 -3 -19 5 -8 10 -20 11 -27 3 -20 31 -37 80 -50 47 -13 53 -22
28 -43 -13 -11 -23 -11 -58 2 -23 8 -48 13 -54 11 -15 -5 -16 -42 -1 -42 5 0
8 -4 5 -9 -6 -9 69 -27 89 -22 5 1 18 3 27 4 10 1 18 5 18 10 0 4 4 6 9 3 11
-7 41 37 41 59 0 9 5 13 10 10 6 -4 8 -10 5 -15 -9 -15 35 -58 68 -66 38 -9
71 -6 75 7 2 5 8 7 13 3 5 -3 9 0 9 6 0 6 4 9 9 5 11 -6 42 35 35 47 -3 4 0 8
5 8 14 0 14 80 1 116 -18 48 -56 74 -105 74 -26 0 -50 -6 -59 -16 -9 -8 -16
-12 -16 -8 0 3 -7 1 -15 -6 -8 -7 -13 -16 -10 -20 3 -5 0 -10 -5 -12 -6 -2
-13 -25 -15 -52 -4 -46 -15 -78 -15 -43 0 15 -30 38 -55 43 -70 14 -90 60 -25
56 3 0 22 -3 43 -7 33 -6 37 -5 37 13 0 11 -6 27 -14 34 -18 18 -116 24 -116
7z m302 -56 c22 -20 25 -109 5 -137 -17 -24 -62 -24 -87 -1 -25 23 -27 100 -4
133 18 26 60 29 86 5z"/>
<path d="M6191 4116 c-8 -9 -11 -52 -9 -126 3 -95 6 -115 21 -124 27 -17 37 8
37 101 0 73 2 84 21 93 11 6 30 10 42 8 20 -3 22 -10 27 -97 4 -76 8 -96 23
-105 28 -18 37 9 37 116 0 91 -2 99 -25 123 -28 27 -72 33 -108 14 -16 -9 -22
-9 -25 0 -5 15 -27 14 -41 -3z"/>
<path d="M25001 4116 c-7 -8 -11 -23 -9 -33 3 -15 13 -18 62 -18 70 0 87 -20
24 -28 -23 -3 -44 -11 -46 -16 -2 -6 -8 -9 -12 -6 -5 3 -17 -4 -28 -15 -38
-41 -8 -140 44 -142 17 -1 46 4 79 13 6 1 18 -1 27 -5 34 -15 48 16 48 104 0
85 -15 132 -48 148 -31 16 -127 15 -141 -2z m112 -193 c-10 -8 -31 -13 -48
-11 -23 2 -31 9 -33 27 -5 30 9 43 55 50 36 6 38 5 41 -23 3 -20 -2 -34 -15
-43z"/>
<path d="M25231 4116 c-8 -9 -11 -52 -9 -126 2 -92 6 -115 19 -123 13 -8 21
-6 33 6 22 22 23 221 2 243 -18 18 -30 18 -45 0z"/>
<path d="M25350 4115 c-14 -8 -20 -15 -15 -15 6 0 2 -5 -7 -11 -19 -11 -25
-59 -7 -59 5 0 7 -4 4 -10 -3 -5 -1 -10 5 -10 6 0 9 -4 5 -9 -5 -9 17 -27 37
-30 4 -1 15 -4 23 -6 8 -3 22 -7 30 -10 23 -7 18 -34 -9 -41 -13 -3 -37 1 -52
9 -16 8 -35 12 -41 10 -15 -5 -17 -32 -3 -53 11 -18 105 -23 135 -8 31 17 47
37 39 49 -4 8 -3 9 4 5 7 -4 12 -1 12 6 0 7 9 -1 20 -19 10 -17 27 -36 38 -42
29 -15 71 -21 78 -10 3 5 9 7 12 5 4 -2 18 2 32 10 14 7 21 13 16 14 -6 0 -1
6 9 14 18 13 21 20 30 80 4 32 -32 129 -45 121 -4 -3 -10 1 -13 8 -3 9 -24 14
-55 16 -43 1 -55 -3 -83 -28 -21 -19 -30 -35 -25 -46 3 -9 2 -13 -4 -10 -6 4
-8 -6 -6 -24 4 -40 -1 -43 -32 -23 -14 9 -42 22 -61 27 -38 11 -53 38 -26 49
9 3 30 0 48 -7 18 -8 38 -12 45 -10 15 6 16 43 1 43 -5 0 -8 4 -5 9 15 24 -94
29 -134 6z m324 -57 c20 -28 21 -97 1 -125 -31 -45 -88 -33 -103 21 -10 33 -3
90 12 115 13 20 74 13 90 -11z"/>
<path d="M25776 4114 c-3 -9 -6 -62 -6 -119 0 -116 4 -135 30 -135 25 0 30 19
30 110 0 84 9 100 58 100 25 0 32 -25 32 -112 0 -36 3 -73 6 -82 8 -21 40 -21
48 0 10 26 7 192 -4 199 -6 4 -9 9 -7 13 7 13 -28 37 -58 40 -17 2 -43 -2 -58
-7 -17 -7 -27 -7 -27 -1 0 16 -37 11 -44 -6z"/>
<path d="M5064 3689 c-3 -5 -9 -7 -14 -4 -16 10 -76 -21 -98 -50 -18 -23 -22
-38 -19 -83 3 -36 10 -59 20 -67 9 -7 14 -15 10 -18 -6 -6 4 -9 23 -6 4 0 10
-4 14 -11 4 -6 13 -12 21 -13 8 -2 19 -5 24 -8 6 -4 24 -9 40 -13 72 -17 97
-64 55 -106 -27 -27 -85 -26 -144 4 -27 14 -55 22 -62 19 -15 -5 -19 -50 -6
-69 11 -17 51 -36 62 -29 6 3 10 1 10 -4 0 -7 26 -11 65 -11 102 0 165 42 176
115 4 30 -11 95 -22 95 -6 0 -8 4 -5 8 7 12 -60 47 -119 61 -59 15 -85 35 -85
67 0 51 87 71 158 35 20 -10 43 -16 50 -14 13 5 16 51 4 70 -17 26 -145 52
-158 32z m115 -30 c28 -10 39 -27 25 -41 -3 -3 -18 1 -34 8 -74 38 -180 4
-180 -57 0 -50 21 -69 106 -95 59 -17 89 -33 104 -51 40 -51 17 -138 -46 -168
-64 -30 -196 -9 -202 33 -3 20 -3 20 33 2 53 -27 147 -22 175 10 21 24 28 90
10 90 -5 0 -10 7 -10 16 0 8 -4 12 -10 9 -5 -3 -10 -2 -10 3 0 6 -24 16 -52
22 -67 16 -103 34 -122 62 -32 45 -10 124 42 152 32 18 126 21 171 5z"/>
<path d="M15287 3686 c-36 -11 -95 -65 -98 -90 -6 -47 -5 -56 2 -56 4 0 6 -9
4 -20 -2 -11 1 -20 7 -20 6 0 9 -3 5 -6 -16 -16 49 -53 134 -78 31 -9 61 -21
66 -28 10 -13 25 -73 15 -64 -2 3 -16 -4 -30 -14 -33 -27 -79 -25 -138 5 -57
29 -74 26 -74 -13 0 -37 17 -58 60 -70 44 -12 160 -13 160 0 0 5 4 7 9 4 5 -3
26 10 47 30 37 33 39 38 39 94 0 54 -3 61 -33 88 -21 19 -59 37 -99 48 -73 20
-93 35 -93 69 0 51 83 72 150 37 47 -23 70 -18 70 17 0 29 -22 55 -55 64 -43
13 -112 14 -148 3z m147 -26 c16 -6 26 -17 26 -30 0 -17 -3 -19 -19 -11 -10 6
-21 7 -25 4 -3 -3 -6 -1 -6 5 0 10 -7 12 -61 14 -34 0 -85 -25 -81 -40 1 -7
-2 -12 -8 -12 -5 0 -10 -9 -10 -20 0 -27 21 -70 31 -64 5 3 9 1 9 -5 0 -6 19
-15 43 -21 79 -21 109 -35 128 -59 39 -49 12 -134 -52 -167 -37 -19 -134 -15
-181 6 -30 14 -39 50 -13 50 8 0 15 -4 15 -8 0 -27 139 -42 159 -18 8 9 20 16
27 16 15 0 16 5 19 58 0 21 -4 32 -13 32 -7 0 -11 4 -8 9 8 12 -20 34 -33 27
-5 -4 -12 -2 -15 3 -3 5 -28 14 -55 21 -28 6 -61 23 -76 37 -47 48 -25 147 39
173 29 12 129 12 160 0z"/>
<path d="M24619 3686 c-36 -11 -98 -67 -100 -90 -6 -50 -6 -62 -1 -71 4 -5 7
-16 8 -23 4 -24 54 -61 97 -72 84 -22 107 -32 118 -51 12 -23 5 -52 -17 -70
-14 -11 -110 -32 -99 -21 7 8 -96 53 -106 46 -13 -8 -11 -58 4 -76 28 -35 171
-52 220 -27 23 13 81 69 71 69 -4 0 -1 6 5 14 7 8 10 34 7 61 -6 62 -40 92
-143 125 -71 23 -78 27 -81 53 -7 63 72 88 149 49 46 -23 59 -18 59 23 0 41
-21 59 -71 60 -21 0 -39 3 -39 8 0 10 -38 7 -81 -7z m141 -25 c16 -4 26 -15
28 -30 3 -21 2 -22 -20 -10 -12 7 -32 13 -43 15 -11 1 -24 3 -30 4 -26 6 -72
-2 -89 -15 -13 -10 -20 -29 -22 -57 -2 -50 18 -73 80 -89 113 -29 135 -46 142
-106 6 -50 -24 -99 -74 -120 -42 -17 -129 -14 -174 8 -30 13 -39 49 -13 49 8
0 15 -4 15 -8 0 -13 61 -31 103 -30 21 0 51 9 70 22 28 19 32 27 30 61 -2 49
-25 67 -110 90 -34 9 -74 28 -88 41 -48 45 -25 148 39 174 25 10 121 11 156 1z"/>
<path d="M6134 3662 c-17 -11 -46 -71 -39 -82 11 -19 36 -10 66 22 35 39 38
68 7 68 -13 0 -28 -4 -34 -8z"/>
<path d="M25719 3660 c-22 -13 -45 -68 -33 -80 5 -5 18 -7 29 -4 23 6 69 70
60 84 -8 13 -35 12 -56 0z"/>
<path d="M5877 3614 c-4 -4 -7 -16 -7 -27 0 -11 -7 -28 -16 -38 -16 -18 -12
-59 7 -59 5 0 9 -34 9 -75 0 -46 4 -75 11 -75 5 0 7 -5 4 -11 -10 -16 35 -49
67 -49 29 0 58 19 58 39 0 6 -12 13 -27 17 -16 3 -34 7 -40 10 -9 2 -13 26
-13 74 0 69 1 70 26 70 25 0 54 20 54 38 0 12 -24 22 -55 22 -19 0 -24 6 -27
33 -2 23 -8 33 -23 35 -12 2 -24 0 -28 -4z"/>
<path d="M25463 3613 c-7 -2 -13 -18 -13 -33 0 -16 -5 -32 -11 -36 -6 -3 -8
-15 -4 -28 4 -11 11 -58 14 -104 9 -98 26 -124 90 -128 33 -2 41 1 47 18 7 23
-9 38 -43 38 -22 0 -23 4 -23 75 l0 75 29 0 c21 0 32 6 36 20 9 28 -2 40 -36
40 -25 0 -29 4 -29 29 0 34 -23 48 -57 34z"/>
<path d="M5426 3550 c-37 -6 -55 -32 -37 -53 9 -12 19 -13 48 -5 42 12 99 -6
72 -23 -7 -5 -24 -9 -36 -9 -35 0 -90 -30 -101 -56 -26 -55 23 -128 81 -121
17 2 40 7 51 12 12 5 21 3 27 -6 6 -11 13 -11 26 -3 15 9 18 27 20 114 1 97 0
104 -23 125 -27 25 -77 39 -83 23 -2 -6 -6 -6 -10 -1 -3 5 -19 6 -35 3z m94
-165 c0 -24 -6 -37 -19 -45 -48 -25 -93 1 -73 45 10 21 22 27 80 34 7 0 12
-12 12 -34z"/>
<path d="M5715 3549 c-4 -5 -26 -9 -48 -7 l-42 3 -3 -120 c-2 -128 5 -158 35
-139 15 9 19 28 21 101 3 85 4 91 27 101 50 23 65 -5 65 -122 0 -73 11 -96 37
-80 15 9 18 27 19 105 1 99 -11 140 -45 159 -26 13 -34 13 -25 -2 6 -10 4 -10
-7 0 -16 15 -26 15 -34 1z"/>
<path d="M6070 3542 c-18 -9 -41 -30 -51 -46 -24 -39 -26 -128 -3 -150 8 -9
13 -16 9 -16 -10 0 18 -25 40 -37 30 -16 129 -10 149 9 32 33 6 70 -34 48 -43
-23 -100 -7 -113 33 -6 15 2 17 72 17 63 0 80 3 85 16 11 28 6 62 -10 78 -8 9
-12 16 -8 16 4 0 -2 9 -15 21 -12 11 -29 18 -37 15 -8 -3 -13 -2 -10 3 9 14
-40 10 -74 -7z m81 -42 c10 -6 19 -20 19 -30 0 -18 -7 -20 -55 -20 -61 0 -73
16 -33 44 26 19 42 20 69 6z"/>
<path d="M25013 3552 c-35 -4 -53 -33 -33 -57 9 -10 18 -11 41 -3 34 12 82 3
76 -15 -2 -7 -14 -13 -28 -15 -54 -7 -90 -25 -104 -52 -32 -62 16 -136 84
-127 20 3 44 8 54 12 10 4 17 3 17 -4 0 -15 19 -14 36 3 21 22 19 169 -3 209
-10 18 -18 33 -18 34 0 2 -34 9 -70 15 -11 2 -34 2 -52 0z m97 -165 c0 -40
-33 -63 -74 -53 -45 11 -32 66 19 79 48 12 55 8 55 -26z"/>
<path d="M25297 3549 c-10 -6 -29 -8 -42 -5 -51 13 -55 3 -55 -121 0 -86 4
-118 14 -129 35 -34 44 -12 48 106 3 71 4 75 31 88 46 22 57 4 57 -95 0 -60 4
-89 14 -99 18 -18 24 -18 43 2 12 12 14 32 11 97 -6 97 -8 108 -28 125 -13 12
-13 13 0 6 12 -6 13 -4 3 6 -7 8 -18 15 -25 16 -7 2 -22 5 -33 8 -11 3 -28 1
-38 -5z"/>
<path d="M25653 3540 c-63 -28 -85 -109 -52 -192 6 -15 15 -25 20 -22 5 3 9
-2 9 -11 0 -51 168 -43 178 9 5 24 -17 37 -39 25 -30 -15 -85 -10 -102 9 -31
34 -21 42 54 42 84 0 104 13 94 63 -9 40 -33 79 -45 72 -4 -3 -10 -1 -12 5 -6
19 -64 19 -105 0z m89 -47 c34 -31 23 -43 -43 -43 -63 0 -65 3 -31 43 19 22
50 22 74 0z"/>
<path d="M4937 3086 c-9 -22 -9 -419 -1 -440 7 -19 45 -21 62 -4 7 7 12 42 12
85 l0 73 43 1 c23 1 46 1 50 0 19 -3 96 52 106 77 16 38 23 102 11 102 -5 0
-7 7 -4 15 4 8 1 15 -6 15 -6 0 -9 4 -6 8 9 14 -47 60 -79 67 -16 3 -64 8
-106 12 -66 5 -77 3 -82 -11z m214 -39 c42 -28 62 -81 48 -129 -17 -62 -73
-98 -154 -98 -51 0 -53 -4 -57 -105 -2 -48 -7 -60 -20 -63 -17 -3 -18 12 -18
207 l0 211 84 0 c70 0 88 -4 117 -23z"/>
<path d="M4994 3027 c-2 -8 -4 -49 -2 -93 l3 -79 61 0 c63 0 92 15 99 53 2 9
4 17 5 17 1 0 3 10 6 23 2 12 -1 22 -7 22 -5 0 -7 5 -4 11 4 5 -5 20 -20 33
-32 27 -131 37 -141 13z m124 -23 c16 -11 22 -25 22 -54 0 -53 -29 -80 -87
-80 l-43 0 0 75 0 75 43 0 c23 0 53 -7 65 -16z"/>
<path d="M15193 3086 c-10 -11 -13 -71 -13 -224 0 -216 3 -232 43 -232 35 0
47 25 47 98 l0 70 59 4 c94 7 154 63 152 143 -1 17 -2 38 -2 48 0 9 -5 17 -10
17 -6 0 -8 4 -5 9 3 4 -3 16 -14 26 -11 10 -20 15 -20 11 0 -4 -10 2 -22 14
-12 11 -33 20 -47 20 -14 0 -55 2 -91 5 -50 4 -68 2 -77 -9z m201 -30 c44 -18
66 -52 66 -101 0 -81 -61 -135 -150 -135 -59 0 -70 -16 -70 -99 0 -56 -3 -71
-15 -71 -13 0 -15 30 -15 210 l0 210 75 0 c42 0 90 -6 109 -14z"/>
<path d="M15253 3033 c-9 -3 -13 -31 -13 -88 0 -92 2 -95 69 -95 23 0 52 9 72
23 31 20 34 28 35 72 2 67 -28 95 -100 94 -28 0 -57 -3 -63 -6z m134 -39 c38
-52 -6 -124 -77 -124 l-40 0 0 76 0 77 52 -5 c34 -4 56 -12 65 -24z"/>
<path d="M24523 3086 c-18 -21 -18 -427 -1 -444 7 -7 22 -12 35 -12 26 0 32
16 35 105 l3 60 35 3 c75 5 99 14 136 47 35 32 38 40 40 92 4 110 -40 149
-181 158 -73 5 -92 3 -102 -9z m202 -30 c58 -25 82 -104 50 -165 -8 -16 -11
-32 -7 -36 4 -3 2 -6 -3 -4 -5 1 -27 -5 -47 -14 -21 -10 -57 -17 -81 -17 -24
0 -48 -5 -55 -12 -7 -7 -12 -42 -12 -85 0 -58 -3 -73 -15 -73 -13 0 -15 30
-15 210 l0 210 75 0 c43 0 90 -6 110 -14z"/>
<path d="M24583 3033 c-9 -3 -13 -31 -13 -88 0 -94 1 -95 78 -93 34 0 49 7 73
31 27 27 30 35 26 75 -6 58 -32 79 -101 80 -28 0 -57 -2 -63 -5z m133 -38 c22
-29 17 -73 -11 -100 -18 -19 -35 -25 -70 -25 l-45 0 0 76 0 76 56 -4 c40 -3
61 -10 70 -23z"/>
<path d="M5355 3028 c-3 -8 -4 -88 -3 -178 l3 -165 25 0 25 0 0 175 c0 174 0
175 -23 178 -12 2 -24 -3 -27 -10z"/>
<path d="M6117 3034 c-4 -4 -7 -26 -7 -48 l0 -41 -48 0 c-53 0 -83 -20 -101
-68 -15 -39 -14 -137 1 -137 6 0 9 -3 5 -6 -7 -8 21 -38 48 -51 11 -6 31 -8
45 -6 14 2 43 5 65 6 l40 2 0 175 c0 169 -1 175 -20 178 -12 2 -24 0 -28 -4z
m-19 -140 c20 -6 22 -12 22 -75 0 -74 -11 -89 -63 -89 -36 0 -52 26 -51 81 1
72 30 99 92 83z"/>
<path d="M7075 3028 c-3 -8 -4 -88 -3 -178 l3 -165 25 0 25 0 0 175 c0 174 0
175 -23 178 -12 2 -24 -3 -27 -10z"/>
<path d="M24943 3033 c-10 -3 -13 -48 -13 -173 0 -146 2 -169 16 -174 9 -4 25
-4 35 -1 18 6 19 19 19 175 0 144 -2 169 -16 174 -18 7 -23 7 -41 -1z"/>
<path d="M25707 3033 c-4 -3 -7 -24 -7 -45 0 -36 -2 -38 -32 -39 -18 0 -42 -2
-53 -4 -29 -5 -73 -62 -80 -104 -8 -47 8 -119 32 -142 18 -17 99 -36 89 -21
-3 5 12 8 32 6 75 -4 72 -12 72 176 0 144 -2 169 -16 174 -20 8 -29 8 -37 -1z
m-23 -139 c12 -5 16 -21 16 -73 0 -76 -9 -91 -57 -91 -37 0 -53 25 -53 81 0
67 41 103 94 83z"/>
<path d="M26663 3033 c-10 -3 -13 -48 -13 -173 0 -146 2 -169 16 -174 9 -4 25
-4 35 -1 18 6 19 19 19 175 0 144 -2 169 -16 174 -18 7 -23 7 -41 -1z"/>
<path d="M5866 3012 c-14 -44 20 -68 51 -36 12 12 14 20 6 33 -15 24 -50 26
-57 3z"/>
<path d="M6216 3012 c-14 -44 20 -68 51 -36 12 12 14 20 6 33 -15 24 -50 26
-57 3z"/>
<path d="M6726 3012 c-14 -44 20 -68 51 -36 12 12 14 20 6 33 -15 24 -50 26
-57 3z"/>
<path d="M7176 3012 c-14 -44 20 -68 51 -36 12 12 14 20 6 33 -15 24 -50 26
-57 3z"/>
<path d="M7763 3015 c-16 -18 -16 -23 1 -41 30 -30 64 -5 51 37 -7 22 -35 24
-52 4z"/>
<path d="M25453 3015 c-16 -18 -16 -23 1 -41 30 -30 64 -5 51 37 -7 22 -35 24
-52 4z"/>
<path d="M25803 3015 c-16 -18 -16 -23 1 -41 30 -30 64 -5 51 37 -7 22 -35 24
-52 4z"/>
<path d="M26312 3018 c-16 -16 -15 -26 2 -44 30 -30 64 -5 51 37 -7 21 -35 25
-53 7z"/>
<path d="M26763 3015 c-16 -18 -16 -23 1 -41 30 -30 64 -5 51 37 -7 22 -35 24
-52 4z"/>
<path d="M27352 3018 c-16 -16 -15 -26 2 -44 30 -30 64 -5 51 37 -7 21 -35 25
-53 7z"/>
<path d="M6338 2932 c-29 -17 -42 -60 -29 -95 12 -31 29 -43 79 -57 32 -8 42
-16 40 -28 -4 -23 -33 -27 -80 -11 -21 7 -41 9 -45 5 -11 -10 11 -61 27 -62 8
-1 17 -3 20 -4 21 -10 69 -7 96 6 28 14 51 51 46 76 -1 4 5 5 12 2 8 -3 12
-12 9 -19 -5 -14 46 -70 55 -60 3 3 11 0 18 -6 19 -16 92 -1 104 21 18 34 13
53 -12 46 -65 -18 -76 -18 -97 3 -26 26 -28 86 -5 120 13 18 23 22 48 18 17
-3 40 -7 51 -9 22 -3 32 27 16 51 -12 19 -106 24 -123 7 -7 -7 -21 -15 -32
-19 -11 -4 -16 -13 -12 -23 3 -8 2 -12 -4 -9 -6 3 -11 3 -11 -2 -1 -4 -3 -23
-5 -42 -5 -42 -9 -47 -28 -32 -8 7 -36 21 -63 31 -26 10 -48 24 -48 31 0 17
57 24 82 11 39 -20 58 14 27 46 -23 22 -102 25 -136 4z"/>
<path d="M6910 2940 c0 -5 -12 -7 -27 -5 -63 8 -63 10 -63 -170 0 -155 1 -164
20 -170 30 -10 40 2 40 46 0 41 0 41 35 36 19 -3 35 -1 35 4 0 5 3 8 8 7 29
-8 62 23 72 67 1 6 6 18 12 28 14 27 -1 105 -27 135 -16 19 -33 26 -63 28 -23
1 -42 -2 -42 -6z m60 -60 c25 -25 27 -95 4 -128 -12 -18 -24 -22 -52 -20 l-37
3 -3 71 c-3 65 -1 71 20 82 33 16 46 14 68 -8z"/>
<path d="M7359 2934 c-8 -10 -16 -11 -30 -3 -11 5 -29 7 -39 4 -18 -6 -20 -16
-20 -125 0 -107 2 -119 19 -125 43 -13 51 2 51 96 0 85 1 90 24 101 48 21 56
8 56 -96 0 -83 2 -95 19 -101 43 -13 51 2 51 95 0 50 -5 92 -10 95 -6 4 -8 11
-5 16 4 5 1 9 -5 9 -6 0 -9 4 -6 9 18 28 -83 52 -105 25z"/>
<path d="M7542 2931 c-39 -33 -19 -56 38 -45 34 7 80 -2 80 -16 0 -6 -11 -10
-24 -10 -14 0 -37 -5 -53 -11 -15 -6 -29 -10 -31 -9 -11 5 -42 -48 -42 -71 0
-36 18 -82 29 -75 5 3 12 -1 15 -9 4 -12 15 -14 43 -9 21 3 56 6 78 7 l40 2 1
99 c2 93 -9 151 -26 141 -4 -3 -13 2 -20 10 -18 22 -101 20 -128 -4z m128
-151 c0 -25 -6 -33 -31 -44 -39 -17 -66 -10 -75 17 -9 28 28 57 72 57 31 0 34
-3 34 -30z"/>
<path d="M8090 2939 c0 -5 -4 -8 -9 -5 -5 4 -24 -8 -41 -26 -23 -22 -30 -38
-27 -55 2 -12 0 -23 -5 -23 -14 0 0 -72 16 -85 7 -5 11 -15 9 -21 -2 -6 7 -18
19 -26 60 -39 162 -29 174 18 9 34 -1 40 -39 26 -48 -17 -74 -15 -97 8 -38 38
-27 50 49 50 84 0 101 6 101 34 0 24 -34 85 -58 104 -19 15 -92 16 -92 1z m80
-58 c18 -36 12 -41 -50 -41 -33 0 -60 3 -60 8 0 4 7 18 16 30 20 29 79 31 94
3z"/>
<path d="M25933 2936 c-21 -11 -49 -38 -45 -43 1 -2 2 -6 1 -10 -6 -39 15 -88
32 -77 5 3 9 0 9 -6 0 -6 4 -9 9 -5 5 3 12 1 16 -5 3 -5 14 -10 24 -10 23 0
41 -19 34 -36 -7 -18 -51 -17 -82 0 -14 8 -31 12 -38 9 -16 -6 -18 -43 -2 -43
5 0 7 -4 4 -10 -5 -9 9 -14 18 -7 2 1 11 -4 20 -11 37 -31 147 17 147 64 0 14
6 11 21 -14 34 -52 89 -68 161 -46 23 7 35 53 18 64 -7 4 -25 0 -41 -9 -26
-14 -31 -15 -56 -1 -24 13 -28 23 -31 64 -4 62 18 91 63 81 64 -13 70 -11 70
15 0 32 -34 49 -92 45 -35 -2 -50 -9 -72 -34 -15 -17 -28 -37 -29 -43 -8 -66
-17 -82 -32 -58 -5 8 -31 21 -57 30 -29 9 -48 21 -48 30 0 18 46 25 73 11 27
-14 46 2 38 33 -4 18 -14 27 -29 28 -66 4 -88 3 -104 -6z"/>
<path d="M26494 2940 c-3 -2 -22 -4 -42 -5 l-37 0 0 -170 0 -170 25 0 c21 0
25 5 28 35 4 50 10 63 24 53 32 -19 64 -9 108 35 22 21 25 33 25 96 0 58 -4
77 -21 98 -12 15 -24 24 -28 21 -3 -3 -6 -1 -6 5 0 10 -66 13 -76 2z m50 -46
c26 -10 38 -75 24 -120 -13 -38 -15 -39 -58 -39 l-45 0 0 70 c0 64 2 70 25 82
29 15 33 15 54 7z"/>
<path d="M26950 2940 c0 -4 -19 -7 -42 -6 l-43 1 0 -125 0 -125 25 0 c25 0 25
1 28 91 3 86 4 92 28 105 46 24 58 5 64 -102 5 -92 5 -94 30 -94 24 0 25 2 28
85 3 86 -4 157 -15 146 -3 -3 -12 2 -19 12 -12 17 -84 27 -84 12z"/>
<path d="M27138 2943 c-18 -5 -34 -40 -23 -51 4 -4 32 -7 62 -7 71 0 83 -21
19 -30 -25 -4 -46 -12 -46 -17 0 -5 -4 -6 -10 -3 -12 7 -50 -52 -50 -78 0 -10
4 -16 9 -13 5 4 7 -2 4 -12 -2 -10 5 -26 16 -36 21 -19 81 -32 81 -17 0 5 19
7 43 6 68 -5 70 -1 65 112 -3 81 -7 104 -23 119 -10 10 -22 19 -26 19 -4 0
-11 3 -15 8 -8 7 -77 8 -106 0z m110 -165 c-4 -38 -38 -61 -72 -49 -51 19 -15
81 47 81 26 0 28 -3 25 -32z"/>
<path d="M27637 2919 c-17 -16 -27 -29 -22 -29 6 0 4 -4 -3 -9 -16 -10 -27
-83 -17 -108 5 -10 9 -24 11 -31 8 -42 74 -75 133 -67 56 7 71 15 77 42 9 33
-11 45 -45 27 -14 -8 -35 -14 -46 -14 -29 0 -65 28 -65 50 0 17 9 19 78 22 77
3 77 3 80 32 5 37 -15 84 -42 98 -11 6 -40 12 -64 13 -34 2 -49 -3 -75 -26z
m110 -27 c6 -4 13 -16 15 -27 3 -18 -3 -20 -54 -23 -62 -3 -72 6 -41 40 16 18
58 24 80 10z"/>
<path d="M5457 2934 c-4 -4 -7 -48 -7 -97 0 -119 28 -166 98 -167 7 0 11 4 8
8 -3 5 18 8 47 8 l52 -1 0 125 0 125 -25 0 c-25 0 -25 -2 -28 -88 -3 -81 -5
-88 -28 -104 -45 -29 -58 -10 -64 98 -5 85 -7 94 -25 97 -12 2 -24 0 -28 -4z"/>
<path d="M5704 2927 c-2 -7 -3 -65 -2 -128 l3 -114 25 0 c24 0 25 2 30 90 l5
90 43 14 c35 11 43 17 40 35 -3 23 -38 30 -70 14 -10 -5 -19 -4 -23 2 -9 14
-45 12 -51 -3z"/>
<path d="M5873 2933 c-10 -3 -13 -38 -13 -123 0 -112 1 -119 21 -125 12 -4 25
-3 30 2 5 5 8 63 7 129 -3 122 -7 133 -45 117z"/>
<path d="M6223 2933 c-10 -3 -13 -38 -13 -123 0 -112 1 -119 21 -125 12 -4 25
-3 30 2 5 5 8 63 7 129 -3 122 -7 133 -45 117z"/>
<path d="M6725 2928 c-3 -8 -4 -66 -3 -129 l3 -114 25 0 25 0 0 125 c0 122 -1
125 -23 128 -12 2 -24 -3 -27 -10z"/>
<path d="M7183 2933 c-10 -3 -13 -38 -13 -123 0 -112 1 -119 21 -125 12 -4 25
-3 30 2 5 5 8 63 7 129 -3 122 -7 133 -45 117z"/>
<path d="M7765 2928 c-3 -8 -4 -66 -3 -129 l3 -114 25 0 25 0 0 125 c0 122 -1
125 -23 128 -12 2 -24 -3 -27 -10z"/>
<path d="M7864 2925 c-3 -6 -3 -63 -2 -126 l3 -114 25 0 c24 0 25 2 30 90 5
98 0 90 78 111 8 2 12 14 10 26 -3 21 -8 23 -71 24 -44 1 -70 -3 -73 -11z"/>
<path d="M25041 2931 c-18 -12 -11 -198 8 -210 7 -5 12 -11 12 -15 -1 -3 2 -7
7 -8 4 0 12 -7 17 -15 7 -9 21 -11 45 -7 19 3 49 7 65 8 17 2 36 4 43 4 9 2
12 33 12 121 0 101 -2 120 -16 125 -9 4 -25 4 -35 1 -17 -6 -19 -17 -19 -95 0
-80 -2 -90 -20 -100 -12 -6 -30 -8 -40 -5 -18 6 -20 16 -20 100 0 75 -3 94
-16 99 -20 8 -26 7 -43 -3z"/>
<path d="M25291 2932 c-7 -2 -11 -43 -11 -122 0 -100 2 -119 16 -124 9 -4 25
-4 35 -1 15 5 19 19 21 93 l3 87 43 13 c30 10 42 19 42 33 0 10 -3 20 -7 20
-20 4 -132 4 -142 1z"/>
<path d="M25455 2928 c-3 -8 -4 -66 -3 -129 l3 -114 25 0 25 0 0 125 c0 122
-1 125 -23 128 -12 2 -24 -3 -27 -10z"/>
<path d="M25805 2928 c-3 -8 -4 -66 -3 -129 l3 -114 25 0 25 0 0 125 c0 122
-1 125 -23 128 -12 2 -24 -3 -27 -10z"/>
<path d="M26317 2933 c-11 -11 -8 -241 3 -248 6 -3 19 -3 30 0 18 6 20 15 20
125 0 98 -3 119 -16 124 -20 8 -29 8 -37 -1z"/>
<path d="M26765 2928 c-3 -8 -4 -66 -3 -129 l3 -114 25 0 25 0 0 125 c0 122
-1 125 -23 128 -12 2 -24 -3 -27 -10z"/>
<path d="M27353 2933 c-10 -3 -13 -38 -13 -123 0 -100 2 -119 16 -124 9 -4 25
-4 35 -1 17 6 19 18 19 125 0 98 -3 119 -16 124 -18 7 -23 7 -41 -1z"/>
<path d="M27457 2933 c-11 -11 -8 -241 3 -248 6 -3 19 -4 30 0 17 5 20 17 22
93 l3 87 43 13 c30 10 42 19 42 33 0 23 -45 37 -70 21 -10 -6 -22 -7 -31 -1
-17 10 -33 11 -42 2z"/>
<path d="M3103 2005 c-18 -20 -18 -321 0 -339 17 -18 125 -17 160 1 16 8 26
17 23 20 -3 3 1 11 10 18 23 16 30 128 10 148 -8 8 -12 17 -9 21 4 3 1 6 -6 6
-7 0 -10 4 -7 9 3 4 -10 16 -29 26 -28 16 -38 17 -60 7 -36 -16 -35 -17 -35
29 0 57 -30 85 -57 54z m147 -154 c15 -29 12 -104 -6 -129 -15 -22 -47 -28
-78 -16 -24 9 -23 139 2 153 29 17 70 13 82 -8z"/>
<path d="M4392 2008 c-19 -19 -17 -325 2 -344 39 -39 46 -15 46 171 0 84 -3
160 -6 169 -7 19 -25 21 -42 4z"/>
<path d="M5603 2005 c-9 -10 -13 -60 -13 -170 0 -130 3 -159 16 -172 12 -12
20 -14 33 -6 23 15 30 326 7 348 -18 18 -27 18 -43 0z"/>
<path d="M2568 1988 c-6 -18 94 -302 114 -321 20 -20 35 -21 52 -4 20 20 117
320 107 330 -5 5 -20 7 -33 4 -20 -5 -29 -23 -57 -109 -18 -57 -37 -107 -41
-111 -4 -5 -24 41 -44 101 -21 63 -44 113 -52 116 -25 9 -42 7 -46 -6z"/>
<path d="M3855 1990 c-8 -12 94 -309 111 -327 37 -38 64 1 121 173 49 149 50
174 5 160 -16 -5 -30 -34 -57 -117 -21 -61 -41 -107 -45 -102 -4 4 -22 53 -40
108 -18 55 -38 103 -44 107 -16 11 -44 10 -51 -2z"/>
<path d="M5358 1994 c-9 -9 -11 -305 -2 -328 3 -9 13 -16 21 -16 28 0 43 28
43 79 l0 51 36 0 c47 0 114 37 97 54 -4 3 -1 6 5 6 16 0 24 53 12 86 -21 54
-47 69 -130 72 -41 2 -78 0 -82 -4z m143 -65 c40 -40 5 -99 -58 -99 l-33 0 0
60 0 60 35 0 c22 0 43 -8 56 -21z"/>
<path d="M5067 1984 c-4 -4 -7 -20 -7 -36 0 -16 -6 -31 -15 -34 -8 -4 -15 -10
-15 -16 0 -5 7 -16 15 -24 10 -11 15 -37 15 -85 0 -104 31 -148 96 -137 22 3
44 22 44 36 0 12 -24 22 -50 22 -24 0 -30 19 -30 90 0 59 0 59 31 62 38 4 62
33 39 48 -8 5 -27 10 -42 10 -23 0 -27 5 -30 33 -2 23 -8 33 -23 35 -12 2 -24
0 -28 -4z"/>
<path d="M5943 1983 c-7 -2 -13 -18 -13 -33 0 -16 -5 -32 -11 -36 -6 -3 -8
-15 -4 -28 4 -11 11 -58 14 -104 8 -97 24 -120 88 -127 35 -3 43 -1 48 15 9
28 -2 40 -36 40 l-29 0 0 75 0 75 29 0 c21 0 32 6 36 20 9 28 -2 40 -36 40
-25 0 -29 4 -29 29 0 34 -23 48 -57 34z"/>
<path d="M2920 1920 c-7 -4 -20 -5 -30 -3 -22 6 -37 -32 -20 -52 8 -10 18 -11
36 -4 32 11 55 11 74 -1 22 -14 1 -30 -45 -34 -21 -1 -43 -10 -50 -19 -7 -9
-15 -14 -18 -10 -10 9 -27 -43 -22 -69 7 -38 28 -69 42 -63 8 2 11 0 8 -5 -7
-11 75 -7 95 5 7 4 16 2 21 -6 6 -11 13 -11 26 -3 14 9 19 27 21 90 4 94 -9
146 -40 162 -31 15 -82 22 -98 12z m80 -163 c0 -53 -67 -78 -94 -34 -20 31 16
63 77 66 13 1 17 -7 17 -32z"/>
<path d="M3559 1914 c-43 -23 -62 -51 -67 -103 -6 -63 1 -90 32 -126 22 -25
33 -29 83 -31 68 -3 106 16 101 49 -2 16 -9 21 -23 19 -85 -15 -103 -14 -119
9 -9 13 -16 27 -16 31 0 5 33 8 74 8 53 0 77 4 86 15 18 21 5 77 -26 111 -15
16 -23 22 -18 14 7 -13 6 -13 -9 -1 -24 19 -67 21 -98 5z m85 -50 c32 -32 20
-44 -45 -44 -63 0 -65 3 -31 43 19 21 55 22 76 1z"/>
<path d="M4193 1922 c-21 -2 -34 -10 -38 -23 -10 -32 3 -41 54 -35 51 7 84 -5
64 -25 -6 -6 -24 -11 -40 -11 -66 0 -119 -58 -97 -107 4 -9 8 -22 10 -30 1 -7
7 -18 13 -24 14 -14 88 -20 96 -8 8 14 45 14 45 1 0 -16 27 -11 34 6 3 9 6 58
6 109 0 83 -3 97 -22 119 -24 25 -63 34 -125 28z m97 -162 c0 -37 -38 -65 -75
-56 -45 11 -31 66 20 79 47 11 55 8 55 -23z"/>
<path d="M4545 1921 c-3 -6 -11 -9 -16 -6 -5 4 -9 1 -9 -5 0 -6 -4 -9 -8 -6
-13 8 -42 -32 -42 -57 1 -22 29 -81 30 -62 0 6 4 5 8 -2 4 -7 25 -18 47 -25
54 -18 54 -43 0 -42 -22 1 -49 3 -60 5 -22 4 -32 -26 -16 -50 13 -21 120 -26
127 -6 3 8 10 12 15 9 17 -10 36 21 36 61 0 48 -20 68 -82 84 -48 12 -54 21
-30 41 12 10 24 11 51 2 39 -12 64 -7 64 13 0 14 -26 38 -44 41 -6 1 -23 5
-37 9 -16 4 -30 2 -34 -4z"/>
<path d="M4905 1920 c3 -5 0 -7 -8 -5 -18 8 -66 -31 -79 -64 -22 -58 -9 -129
33 -175 23 -24 148 -39 134 -16 -5 9 -4 11 4 6 15 -10 41 11 41 34 0 22 -21
32 -41 19 -28 -18 -87 -10 -103 13 -9 12 -16 26 -16 30 0 5 33 8 74 8 87 0
101 10 90 67 -6 32 -44 89 -44 66 0 -4 -4 -2 -8 5 -5 7 -25 15 -46 17 -23 3
-35 1 -31 -5z m59 -56 c32 -32 20 -44 -45 -44 -63 0 -65 3 -31 43 19 21 55 22
76 1z"/>
<path d="M5743 1922 c-34 -3 -49 -26 -37 -56 4 -11 13 -15 23 -11 31 13 76 16
90 6 20 -13 4 -31 -29 -31 -16 0 -35 -6 -42 -13 -7 -8 -18 -12 -25 -10 -7 3
-19 -10 -29 -28 -13 -27 -14 -39 -5 -70 16 -53 75 -71 144 -44 10 4 17 3 17
-4 0 -15 19 -14 36 3 21 21 19 155 -3 206 -20 45 -61 61 -140 52z m97 -166 c0
-28 -5 -36 -29 -46 -39 -16 -71 -5 -71 24 0 26 14 41 45 49 48 12 55 8 55 -27z"/>
<path d="M6138 1914 c-81 -34 -98 -162 -30 -235 25 -26 115 -36 152 -17 32 17
36 65 5 60 -81 -14 -97 -14 -115 3 -38 34 -26 45 51 45 84 0 104 13 94 63 -11
50 -24 68 -60 83 -42 17 -50 17 -97 -2z m84 -51 c34 -31 23 -43 -43 -43 -63 0
-65 3 -31 43 19 22 50 22 74 0z"/>
<path d="M6363 1922 c-34 -3 -49 -26 -37 -56 4 -11 13 -15 23 -11 31 13 76 16
90 6 19 -12 5 -31 -23 -31 -78 0 -128 -59 -106 -124 16 -50 76 -67 143 -41 10
4 17 3 17 -4 0 -15 19 -14 36 3 21 21 19 155 -3 206 -20 45 -61 61 -140 52z
m97 -166 c0 -28 -5 -36 -29 -46 -39 -16 -71 -5 -71 24 0 26 14 41 45 49 48 12
55 8 55 -27z"/>
<path d="M3353 1913 c-20 -7 -18 -230 1 -249 34 -34 46 -11 46 91 0 78 6 89
53 100 33 9 40 19 32 44 -7 22 -52 22 -66 0 -8 -12 -11 -11 -20 4 -10 17 -23
20 -46 10z"/>
<path d="M6557 1914 c-4 -4 -7 -51 -7 -105 0 -90 2 -100 26 -128 28 -33 67
-41 107 -20 16 9 22 9 25 0 7 -20 41 -12 47 12 3 12 5 72 3 132 -3 110 -3 110
-28 110 -25 0 -25 -1 -28 -90 -3 -96 -12 -115 -58 -115 -27 0 -33 22 -37 135
-2 62 -4 70 -22 73 -12 2 -24 0 -28 -4z"/>
<path d="M6787 1906 c-3 -7 10 -35 29 -61 19 -27 34 -53 34 -58 0 -5 -16 -31
-35 -57 -35 -48 -38 -80 -8 -80 16 0 53 35 72 67 10 17 12 17 25 -2 37 -51 53
-65 73 -65 35 0 32 21 -8 81 l-38 57 38 55 c24 33 36 59 31 67 -13 21 -58 2
-84 -36 l-24 -35 -21 34 c-28 46 -73 63 -84 33z"/>
</g>
</svg>
